# xmcd
#
# Track frame offsets: 
#        150
#        16733
#        32480
#        50853
#        70893
#        92873
#        111673
#        140800
#        161338
#        188140
#        207485
#        222090
#        245103
#
# Disc length: 3517 seconds
#
# Revision: 1
# Processed by: cddbd v1.5.2PL0 Copyright (c) Steve Scherf et al.
# Submitted via: ExactAudioCopy v0.99pb1
#
DISCID=c60dbb0d
DTITLE=Rita Reys - Swing and sweet
DYEAR=1990
DGENRE=Jazz
TTITLE0=I thought about you
TTITLE1=That's all
TTITLE2=I'm old fashioned
TTITLE3=The way you look tonight
TTITLE4=Lover man
TTITLE5=Just in time
TTITLE6=Cheek to cheek
TTITLE7=My Romance
TTITLE8=Just one of those things
TTITLE9=Skylark
TTITLE10=Just friends
TTITLE11=So many stars
TTITLE12=Do I love you
EXTD=
EXTT0=
EXTT1=
EXTT2=
EXTT3=
EXTT4=
EXTT5=
EXTT6=
EXTT7=
EXTT8=
EXTT9=
EXTT10=
EXTT11=
EXTT12=
PLAYORDER=
